# xmcd
#
# Track frame offsets: 
#        150
#        10717
#        24732
#        38605
#        54142
#        67417
#        84897
#        101332
#        114545
#        127327
#        139915
#        151412
#        168572
#        184902
#        200000
#        214600
#        226787
#        242567
#        259290
#        270805
#        286357
#        303617
#        317100
#
# Disc length: 4418 seconds
#
# Revision: 2
# Processed by: cddbd v1.5.2PL0 Copyright (c) Steve Scherf et al.
# Submitted via: ExactAudioCopyFreeDBPlugin 1.0
#
DISCID=44114017
DTITLE=Barbara Mandrell - The Best Of
DYEAR=1999
DGENRE=Country
TTITLE0=Sleeping Single In A Double Bed
TTITLE1=Standing Room Only
TTITLE2=(If Loving You Is Wrong) I Don't Want To Be Right
TTITLE3=Woman To Woman
TTITLE4=Married But Not To Each Other
TTITLE5=Years
TTITLE6=I Was Country When Country Wasn't Cool (duet with George Jones
TTITLE6=)
TTITLE7='Til You're Gone
TTITLE8=Wish You Were Here
TTITLE9=One Of A Kind Pair Of Fools
TTITLE10=Happy Birthday Dear Heartache
TTITLE11=Only A Lonely Heart Knows
TTITLE12=Fast Lanes and Country Roads
TTITLE13=Darlin'
TTITLE14=To Me (duet with Lee Greenwood)
TTITLE15=That's What Friends Are For
TTITLE16=After The Lovin'
TTITLE17=The Best Of Strangers
TTITLE18=Crackers
TTITLE19=There's No Love In Tennessee
TTITLE20=When You Get To The Heart (duet with The Oak Ridge Boys)
TTITLE21=Tonight
TTITLE22=No One MEnds A Broken Heart Like You
EXTD=English Import YEAR: 1999
EXTT0=
EXTT1=
EXTT2=
EXTT3=
EXTT4=
EXTT5=
EXTT6=
EXTT7=
EXTT8=
EXTT9=
EXTT10=
EXTT11=
EXTT12=
EXTT13=
EXTT14=
EXTT15=
EXTT16=
EXTT17=
EXTT18=
EXTT19=
EXTT20=
EXTT21=
EXTT22=
PLAYORDER=
